<svg width="24" height="24" xmlns="http://www.w3.org/2000/svg"><path d="M12 24c6.624 0 12-5.376 12-12S18.624 0 12 0 0 5.376 0 12s5.376 12 12 12zm4.283-12.857h1.718V9.426h1.718v1.718h1.703v1.718h-1.703v1.718h-1.718v-1.718h-1.718zM8.579 5.999c1.514 0 2.908.533 4.017 1.563L10.97 9.14c-.639-.625-1.514-.924-2.391-.924-2.076 0-3.736 1.718-3.736 3.779s1.655 3.779 3.736 3.779c1.577 0 3.14-.924 3.392-2.579H8.579v-2.061h5.657c.063.329.092.658.092 1.001 0 3.426-2.299 5.864-5.749 5.864V18c-3.329 0-6.001-2.686-6.001-6.001s2.672-6 6.001-6z"/></svg>